<svg xmlns="http://www.w3.org/2000/svg" width="24" height="22" viewBox="0 0 24 22">
  <path id="speech-bubble-4" d="M12,3c5.514,0,10,3.592,10,8.007,0,4.917-5.145,7.961-9.91,7.961A17.1,17.1,0,0,1,7.7,18.324a13.5,13.5,0,0,1-4.272,1.82,9.355,9.355,0,0,0,.6-4.265A7.044,7.044,0,0,1,2,11.007C2,6.592,6.486,3,12,3Zm0-2C5.662,1,0,5.226,0,11.007a8.814,8.814,0,0,0,2.047,5.625C2.1,18.462,1.024,21.088.054,23a28.842,28.842,0,0,0,7.977-2.535,17.16,17.16,0,0,0,4.059.5c7.084,0,11.91-4.837,11.91-9.961C24,5.2,18.3,1,12,1ZM8.5,11A1.5,1.5,0,1,1,7,9.5,1.5,1.5,0,0,1,8.5,11ZM12,9.5A1.5,1.5,0,1,0,13.5,11,1.5,1.5,0,0,0,12,9.5Zm5,0A1.5,1.5,0,1,0,18.5,11,1.5,1.5,0,0,0,17,9.5Z" transform="translate(0 -1)" fill="#007dc5"/>
</svg>
