<svg xmlns="http://www.w3.org/2000/svg" width="24" height="22" viewBox="0 0 24 22">
  <path id="help-6" d="M12,3c5.514,0,10,3.592,10,8.007,0,4.917-5.145,7.961-9.91,7.961A17.1,17.1,0,0,1,7.7,18.324a13.5,13.5,0,0,1-4.272,1.82,9.355,9.355,0,0,0,.6-4.265A7.044,7.044,0,0,1,2,11.007C2,6.592,6.486,3,12,3Zm0-2C5.662,1,0,5.226,0,11.007a8.814,8.814,0,0,0,2.047,5.625C2.1,18.462,1.024,21.088.054,23a28.842,28.842,0,0,0,7.977-2.535,17.16,17.16,0,0,0,4.059.5c7.084,0,11.91-4.837,11.91-9.961C24,5.2,18.3,1,12,1Zm1.024,13.975A1.024,1.024,0,1,1,12,13.951,1.024,1.024,0,0,1,13.024,14.975Zm1.141-8.192A2.891,2.891,0,0,0,12.075,6C10.289,6,9.134,7.27,9.134,9.237h1.647c0-1.217.68-1.649,1.261-1.649a1.084,1.084,0,0,1,1.117,1c.052.694-.319,1.047-.788,1.493A3.014,3.014,0,0,0,11.2,12.927h1.643a2.165,2.165,0,0,1,.765-1.785,3.665,3.665,0,0,0,1.259-2.476A2.56,2.56,0,0,0,14.165,6.783Z" transform="translate(0 -1)" fill="#012148"/>
</svg>
