<svg xmlns="http://www.w3.org/2000/svg" width="24" height="22" viewBox="0 0 24 22">
  <g id="icon-favorite" transform="translate(-133 -860)">
    <path id="favorite-2" d="M12,9.229C12.234,8.109,13.547,3,17.382,3,19.6,3,22,4.551,22,8c0,3.907-3.627,8.47-10,12.629C5.627,16.473,2,11.91,2,8,2,4.519,4.369,3,6.577,3,10.5,3,11.722,8.123,12,9.229ZM0,8c0,4.068,3.06,9.481,12,15,8.94-5.516,12-10.929,12-15,0-7.962-9.648-9.028-12-3.737C9.662-1,0,0,0,8Z" transform="translate(133 859)" fill="#fff"/>
  </g>
</svg>
