<svg xmlns="http://www.w3.org/2000/svg" width="22" height="23.999" viewBox="0 0 22 23.999">
  <g id="Group_3" data-name="Group 3" transform="translate(-414 -528)">
    <path id="Path_295" data-name="Path 295" d="M429,552H416.391a35.189,35.189,0,0,0,.633-5.686,4.55,4.55,0,0,0-.54-2.1,12.324,12.324,0,0,1-2.475-7.43c.224-5.209,4.693-8.779,10.126-8.779,5.1,0,8.507,3,9.858,7.483a3.027,3.027,0,0,1-.151,2.607l-.006.013,1.751,2.142a2.173,2.173,0,0,1,.413,1.239,1.916,1.916,0,0,1-.61,1.4,3.5,3.5,0,0,1-1.248.642s-.576,2.592-.873,3.291c-.7,1.643-1.97,1.659-2.97,1.849-.394.083-.49.133-.681.681A25.721,25.721,0,0,0,429,552m-4.842-22c-4.285.048-7.74,2.548-8.121,6.488a9.362,9.362,0,0,0,1.516,5.705,6.472,6.472,0,0,1,1.464,3.875,18.363,18.363,0,0,1-.241,3.932h8.6a7.539,7.539,0,0,1,.687-2.057,2.582,2.582,0,0,1,1.926-1.254c.838-.148,1.238-.059,1.489-.785a22.888,22.888,0,0,0,.831-3.9,9.808,9.808,0,0,0,1.671-.559c-.206-.234-1.918-2.314-2.045-2.6-.336-.759-.046-1.19.225-1.913a.838.838,0,0,0-.009-.613c-1.049-3.949-3.891-6.317-8-6.317m.52,3c.242.684.312,1.122.841,1.341h0c.53.221.893-.044,1.543-.353l.953.952c-.312.655-.573,1.016-.354,1.544h0c.219.528.653.6,1.342.841v1.347c-.681.243-1.123.313-1.342.843s.043.891.354,1.544l-.953.952c-.657-.313-1.014-.574-1.541-.355h0c-.531.222-.6.661-.843,1.343h-1.348c-.242-.684-.312-1.122-.841-1.34h0c-.529-.221-.892.043-1.544.353l-.952-.952c.3-.643.574-1.011.353-1.545s-.661-.6-1.341-.842v-1.347c.681-.242,1.121-.312,1.341-.841s-.042-.891-.353-1.545l.952-.952c.657.312,1.015.573,1.544.353h0c.529-.219.6-.661.841-1.341ZM424,539.666A1.667,1.667,0,1,1,425.666,538,1.667,1.667,0,0,1,424,539.666" fill="#012148" fill-rule="evenodd"/>
  </g>
</svg>
