<svg xmlns="http://www.w3.org/2000/svg" width="24" height="24" viewBox="0 0 24 24">
  <g id="Group_1" data-name="Group 1" transform="translate(-413 -528)">
    <path id="Path_4" data-name="Path 4" d="M420.919,545.377,416.05,532H414a1,1,0,0,1,0-2h3.45l5.469,15.025a3.5,3.5,0,0,1,2.139,1.088l11.258-4.1L437,543.9l-11.049,4.021a3.5,3.5,0,1,1-5.032-2.539Zm1.581,1.81a1.313,1.313,0,1,1-1.313,1.313,1.314,1.314,0,0,1,1.313-1.313Zm13.314-6.511L424.4,544.832l-2.736-7.518,11.418-4.156,2.736,7.518Zm-8.71-3.215-2.88,1.048,1.368,3.759,7.659-2.787-1.368-3.759-2.9,1.055.684,1.879-1.879.685-.684-1.88Zm2.672-4.165-8.458,3.078-1.927-5.3L427.848,528l1.928,5.3Zm-3.123-2.733-4.7,1.711.56,1.537,4.7-1.71-.559-1.538Z" fill="#012148" fill-rule="evenodd"/>
  </g>
</svg>
