<svg xmlns="http://www.w3.org/2000/svg" width="24.592" height="24.592" viewBox="0 0 24.592 24.592">
  <g id="Group_25" data-name="Group 25" transform="translate(-0.704 -30.704)">
    <path id="Path_297" data-name="Path 297" d="M14.373,38.87l2.642,2.643L11.627,46.9,8.985,44.258l5.388-5.388m0-2.593L6.392,44.258l5.235,5.235,7.981-7.98-5.235-5.236Z" fill="#007dc5"/>
    <path id="Path_298" data-name="Path 298" d="M10.8,55.3,6.413,50.909l.648-.647a.935.935,0,1,0-1.322-1.323l-.648.648L.7,45.2,15.2,30.7l4.429,4.428-.814.729a.936.936,0,0,0,1.357,1.287h0c-.006,0,.02-.032.049-.063l.647-.714L25.3,40.8l-5.71,5.71ZM8.9,50.8l1.9,1.9L22.7,40.8l-1.876-1.876a2.828,2.828,0,0,1-3.273-.479,2.77,2.77,0,0,1-.479-3.273L15.2,33.3,3.3,45.2,5.2,47.1A2.768,2.768,0,0,1,8.9,50.8Z" fill="#007dc5"/>
  </g>
</svg>
